<mxfile host="app.diagrams.net" modified="2023-03-24T18:17:33.091Z" agent="Mozilla/5.0 (Macintosh; Intel Mac OS X 10_15_7) AppleWebKit/537.36 (KHTML, like Gecko) Chrome/111.0.0.0 Safari/537.36" version="21.1.0" etag="HDBCtUwmrlotVc14AsJ7" type="github">
  <diagram name="PÃ¡gina-1" id="_EBDA8QYbZ0stD0L5a_n">
    <mxGraphModel>
      <root>
        <mxCell id="0" />
        <mxCell id="1" parent="0" />
      </root>
    </mxGraphModel>
  </diagram>
</mxfile>
